<svg xmlns="http://www.w3.org/2000/svg" width="256" height="256"><path fill-opacity=".016" d="M0 128.004v128.004l128.25-.254 128.25-.254.254-127.75L257.008 0H0v128.004m.485.496c0 70.4.119 99.053.265 63.672.146-35.38.146-92.98 0-128C.604 29.153.485 58.1.485 128.5" fill="#1976D2" fill-rule="evenodd"/><path fill-opacity=".239" d="M132.5 8.482c-13.207 3.565-23.628 9.214-35.844 19.429-20.158 16.857-31.178 36.344-34.827 61.587-1.17 8.09-1.1 9.23 1.095 17.822 1.29 5.049 3.659 13.35 5.264 18.448l2.917 9.267-3.552 3.351c-5.001 4.716-4.849 9.226.824 24.403 2.796 7.481 4.636 14.305 5.094 18.892.507 5.068 1.266 7.676 2.58 8.865 1.024.927 3.035 5.207 4.468 9.512 2.911 8.739 8.152 17.429 14.139 23.442 2.191 2.2 7.375 8.282 11.52 13.515 7.606 9.603 12.007 13.404 19.322 16.689 3.313 1.488 6.575 1.78 19 1.7 12.841-.081 16.439-.476 25-2.742 15.405-4.078 21.421-7.562 33.066-19.148 16.168-16.084 21.693-25.513 24.541-41.882 1.041-5.981 1.893-11.212 1.893-11.625 0-.413 1.724-1.027 3.831-1.364 2.108-.337 4.525-1.407 5.372-2.378 3.741-4.288 4.117-6.59 4.486-27.497.302-17.15.101-21.273-1.156-23.704-1.938-3.748-5.242-6.064-8.649-6.064-1.468 0-2.871-.562-3.116-1.25-.245-.687.16-8 .901-16.25 1.9-21.16.701-28.823-6.877-43.934-3.184-6.35-5.985-9.992-13.168-17.118-5.018-4.979-12.274-11.385-16.124-14.236-9.106-6.742-27.26-15.786-35.5-17.685-7.963-1.835-19.798-1.855-26.5-.045m6.902 18.606c-18.47 1.649-34.706 5.923-43.43 11.43-10.843 6.845-14.828 12.688-21.514 31.548-3.362 9.485-3.7 11.389-3.71 20.934-.006 6.431.641 13.212 1.671 17.5 2.108 8.776 3.65 28.379 2.419 30.75-.5.963-1.777 1.75-2.838 1.75-2.579 0-4.337 3.538-3.702 7.449.283 1.747 2.582 8.878 5.109 15.847 3.147 8.682 4.593 14.24 4.593 17.653 0 3.792.434 5.213 1.819 5.954 1.077.576 2.533 3.543 3.57 7.273 3.375 12.14 13.784 27.817 18.476 27.828 2.293.005 6.525 2.739 15.708 10.145 11.747 9.476 13.844 10.291 27.427 10.658 10.452.283 12.381.039 21.163-2.683 11.871-3.679 15.735-5.616 24.488-12.273 12.263-9.328 19.205-15.922 21.285-20.22 1.123-2.319 3.611-10.447 5.529-18.063 3.359-13.338 5.488-18.568 7.558-18.568.537 0 .977.675.977 1.5 0 1.984 5.823 2.013 8.636.043 2.021-1.416 5.192-10.049 4.093-11.147-.3-.301-.843.387-1.205 1.529-.367 1.157-1.514 2.075-2.591 2.075-2.353 0-2.548-1.55-.304-2.411 1.292-.496 1.506-1.501 1.034-4.857-.328-2.328-.087-8.957.536-14.732.623-5.775.791-12.298.375-14.496-.842-4.445-.576-4.577-6.143 3.055-1.295 1.775-2.324 2.423-2.752 1.731-.376-.608 1.128-3.397 3.342-6.198l4.026-5.092h-3.037c-1.671 0-3.871.521-4.891 1.158-5.239 3.271-6.746-1.529-8.073-25.707-.816-14.878-1.563-20.263-4.363-31.455-3.991-15.958-4.755-17.572-12.19-25.761-10.81-11.907-19.884-15.303-40.332-15.097-7.514.075-17.755.503-22.759.95m17.881 72.495c-.431 1.054-.783 5.067-.783 8.917 0 6.087.501 8.025 3.839 14.858 2.52 5.155 5.657 9.625 9.124 13 5.542 5.392 7.09 8.739 5.456 11.793-1.502 2.806-6.327 4.849-11.453 4.849-3.269 0-4.506.368-4.202 1.25.27.784 2.305 1.237 5.459 1.214 5.55-.04 11.374-3.188 13.164-7.115 1.687-3.703-.453-8.859-5.339-12.863-2.898-2.375-5.717-6.19-8.341-11.287-5.793-11.257-6.523-14.06-5.114-19.655.858-3.405.878-4.973.075-5.776-.803-.803-1.315-.582-1.885.815m13.706 1.667c-5.211 3.123-9.18 7.893-7.753 9.319.375.375 1.882-.744 3.349-2.487 7.477-8.887 21.637-9.757 32.531-2 3.579 2.549 4.983 1.804 2.295-1.218-3.515-3.95-11.304-6.844-18.455-6.854-5.614-.009-7.315.452-11.967 3.24m2.011 4.64c-1.925 1.062-4.755 3.251-6.289 4.866-2.391 2.516-2.58 3.107-1.328 4.147.804.667 4.483 1.713 8.177 2.325 7.934 1.315 13.699.162 19.94-3.988 2.2-1.463 4.636-2.678 5.414-2.7 3.522-.1 1.552-2.211-3.672-3.935-8.523-2.812-17.894-3.114-22.242-.715m-71.006 1.533c-6.182 1.708-8.21 2.92-11.879 7.099-4.435 5.051-2.783 6.408 1.912 1.569 8.045-8.289 26.944-9.619 30.928-2.176 1.381 2.581 3.045 2.712 3.045.24 0-3.913-8.116-8.214-15.218-8.066-2.355.05-6.31.65-8.788 1.334m69.194 2.928c-3.678 2.725-3.453 3.134 2.32 4.215 3.365.63 3.811.527 2.838-.659-.635-.774-1.31-2.443-1.5-3.708l-.346-2.301-3.312 2.453m16.517.399c-.291 1.513-.444 2.837-.34 2.943.103.106 1.672-.747 3.485-1.895 2.45-1.551 2.958-2.304 1.974-2.928-2.588-1.641-4.584-.908-5.119 1.88m-86.483 2.72C96.911 114.816 90 119.404 90 120.919c0 1.235 11.053 4.081 15.848 4.081 2.319 0 5.832-.675 7.806-1.5 5.345-2.233 7.364-1.813 2.807.584-3.552 1.869-5.173 2.034-15.711 1.595-6.463-.27-11.75-.131-11.75.308 0 1.345 2.593 1.91 12.018 2.622 8.425.636 9.524.491 15.983-2.109 3.815-1.536 6.668-3.227 6.339-3.758-.328-.531.012-1.342.756-1.801 1.067-.66.831-1.391-1.122-3.476-4.953-5.285-12.93-6.75-21.752-3.995m95.322 3.19c-2.905 2.554-3.154 2.589-14.786 2.11-8.405-.346-11.724-.166-11.464.622.424 1.284 7.587 2.396 16.206 2.517 7.122.099 14.41-3.503 14.485-7.159.027-1.357-1.441-.726-4.441 1.91m-82.845 1.121c-.287 1.496-.45 2.745-.361 2.778.089.032 1.718-.471 3.619-1.118l3.457-1.176-3.097-1.601c-3.072-1.588-3.1-1.58-3.618 1.117m-17.009.655c-1.968 1.492-1.576 1.957 2.463 2.921 2.528.602 2.599.514 1.5-1.854-1.328-2.864-1.523-2.917-3.963-1.067m128.946 22.814c.425 1.238.696 3.52.602 5.072-.109 1.821.262 2.68 1.047 2.423 1.646-.541 2.092-5.172.741-7.696-1.507-2.816-3.37-2.66-2.39.201m.364 11.275c0 .288 1.158.965 2.573 1.503 3.147 1.196 2.915 4.149-.387 4.928-3.064.723-2.373 2.634.802 2.219 5.019-.656 6.611-4.418 3.183-7.52-1.683-1.524-6.171-2.346-6.171-1.13m-74 8.93c0 2 .601 2.547 3.25 2.953 1.787.274 5.05.782 7.25 1.129 5.096.804 17.972 6.122 19.614 8.101 1.877 2.261 8.882 5.578 10.483 4.963 4.417-1.695-.485-6.133-14.243-12.895-9.257-4.551-16.619-6.706-22.903-6.706-2.997 0-3.451.323-3.451 2.455m-18.787 2.026c-2.908 1.354-7.74 4.09-10.738 6.08-6.689 4.439-15.697 14.912-15.275 17.758.554 3.736 2.538 2.808 5.602-2.622 3.917-6.94 10.614-12.789 18.657-16.293 4.008-1.746 6.786-3.646 7.446-5.094 1.314-2.885.842-2.871-5.692.171" fill="#1976D2" fill-rule="evenodd"/><path fill-opacity=".188" d="M142.75 7.706c1.238.238 3.262.238 4.5 0 1.238-.239.225-.434-2.25-.434s-3.488.195-2.25.434m-7.481.987c.973.254 2.323.237 3-.037.677-.274-.119-.481-1.769-.461-1.65.02-2.204.244-1.231.498m16.981-.004c.963.252 2.537.252 3.5 0 .963-.251.175-.457-1.75-.457s-2.713.206-1.75.457m-21.437.994c.721.289 1.584.253 1.916-.079.332-.332-.258-.568-1.312-.525-1.165.048-1.402.285-.604.604m28 0c.721.289 1.584.253 1.916-.079.332-.332-.258-.568-1.312-.525-1.165.048-1.402.285-.604.604M163.5 11c2.749 1.181 4.328 1.181 2.5 0-.825-.533-2.175-.945-3-.914-.989.036-.819.347.5.914M123 12c-.825.533-1.05.969-.5.969s1.675-.436 2.5-.969c.825-.533 1.05-.969.5-.969s-1.675.436-2.5.969m45.083.34c.23.187 4.917 2.66 10.417 5.494 5.5 2.835 9.1 4.444 8 3.578C184.332 19.703 169.482 12 168.356 12c-.379 0-.502.153-.273.34m-52.333 2.728c-2.062 1.089-3.75 2.203-3.75 2.476 0 .446 7.899-3.246 8.917-4.167 1.15-1.041-1.853-.058-5.167 1.691M100.405 25.25L98.5 27.5l2.25-1.905c2.114-1.79 2.705-2.595 1.905-2.595-.19 0-1.202 1.012-2.25 2.25m50.61-1.57c-.008.65-1.027 1.376-2.265 1.614-1.238.239-.225.459 2.25.491 2.475.031 3.825-.2 3-.514-.825-.314-1.831-1.066-2.235-1.671-.519-.778-.739-.754-.75.08m38.485.02c.55.519 3.025 2.415 5.5 4.212l4.5 3.269-3.5-3.16c-3.066-2.768-9.11-6.786-6.5-4.321m-26.231 1.993c.973.254 2.323.237 3-.037.677-.274-.119-.481-1.769-.461-1.65.02-2.204.244-1.231.498m10.481-.031c.688.278 1.813.278 2.5 0 .688-.277.125-.504-1.25-.504s-1.937.227-1.25.504M180 26c-1.282.828-1.246.972.25.985.963.008 1.75-.435 1.75-.985 0-1.22-.113-1.22-2 0m-44.75.689c.963.252 2.537.252 3.5 0 .963-.251.175-.457-1.75-.457s-2.713.206-1.75.457M88.978 35.75L80.5 44.5l8.75-8.478c4.813-4.663 8.75-8.6 8.75-8.75 0-.728-1.148.351-9.022 8.478m38.291-8.057c.973.254 2.323.237 3-.037.677-.274-.119-.481-1.769-.461-1.65.02-2.204.244-1.231.498m-5.456.99c.721.289 1.584.253 1.916-.079.332-.332-.258-.568-1.312-.525-1.165.048-1.402.285-.604.604m-9 2c.721.289 1.584.253 1.916-.079.332-.332-.258-.568-1.312-.525-1.165.048-1.402.285-.604.604m87.604 8.352c4.603 4.42 8.928 9.384 9.611 11.033.683 1.648 1.439 2.799 1.68 2.557 1.103-1.103-3.189-6.775-10.499-13.875-4.389-4.263-8.245-7.75-8.571-7.75-.325 0 3.175 3.616 7.779 8.035m1.083-6.383c5.155 5.167 14.598 13.368 11.5 9.989-1.925-2.1-5.75-5.658-8.5-7.906-2.75-2.248-4.1-3.185-3-2.083M97.441 36.555c-1.864 1.494-1.852 1.512.309.465 1.237-.6 2.25-1.3 2.25-1.555 0-.765-.519-.544-2.559 1.09M88.5 42.791c-1.65 1.49-3.899 3.834-4.997 5.209-1.098 1.375.364.25 3.249-2.5 4.791-4.568 5.715-5.576 4.998-5.459-.138.022-1.6 1.259-3.25 2.75M77.698 48.25c-2.713 3.669-4.543 6.829-3.04 5.25 1.856-1.949 6.436-8.5 5.944-8.5-.275 0-1.582 1.462-2.904 3.25M216 47.378c0 .207.787.995 1.75 1.75 1.586 1.243 1.621 1.208.378-.378-1.307-1.666-2.128-2.195-2.128-1.372M79.954 53.086c-.614 1.147-.928 2.274-.697 2.504.23.23.932-.708 1.559-2.086 1.378-3.024.707-3.35-.862-.418m133.125 5.497c.048 1.165.285 1.402.604.605.289-.722.253-1.585-.079-1.917-.332-.332-.568.258-.525 1.312M76.624 60.539c-.965 2.514-.681 3.163.498 1.136.584-1.004.851-2.036.593-2.293-.257-.258-.749.263-1.091 1.157M214.158 63c0 1.375.227 1.938.504 1.25.278-.687.278-1.812 0-2.5-.277-.687-.504-.125-.504 1.25m10.873-.5c0 .55.436 1.675.969 2.5.533.825.969 1.05.969.5s-.436-1.675-.969-2.5c-.533-.825-.969-1.05-.969-.5M68.624 64.539c-.965 2.514-.681 3.163.498 1.136.584-1.004.851-2.036.593-2.293-.257-.258-.749.263-1.091 1.157m146.391 3.044c.009 1.055.472 2.592 1.031 3.417.741 1.095.834.691.344-1.5-.823-3.677-1.395-4.475-1.375-1.917m12.071-.083c.104 1.894 1.77 5.084 1.828 3.5.031-.825-.381-2.175-.914-3-.533-.825-.945-1.05-.914-.5m-10.007 7.083c.048 1.165.285 1.402.604.605.289-.722.253-1.585-.079-1.917-.332-.332-.568.258-.525 1.312m12 0c.048 1.165.285 1.402.604.605.289-.722.253-1.585-.079-1.917-.332-.332-.568.258-.525 1.312m-164 1c.048 1.165.285 1.402.604.605.289-.722.253-1.585-.079-1.917-.332-.332-.568.258-.525 1.312M230.252 80.5c.011 2.2.216 2.982.455 1.738.239-1.244.23-3.044-.02-4s-.446.062-.435 2.262m-166.173-.917c.048 1.165.285 1.402.604.605.289-.722.253-1.585-.079-1.917-.332-.332-.568.258-.525 1.312m6.079.417c0 1.375.227 1.938.504 1.25.278-.687.278-1.812 0-2.5-.277-.687-.504-.125-.504 1.25m148.037.5c.02 1.65.244 2.204.498 1.231.254-.973.237-2.323-.037-3-.274-.677-.481.119-.461 1.769M63.158 84c0 1.375.227 1.938.504 1.25.278-.687.278-1.812 0-2.5-.277-.687-.504-.125-.504 1.25m156.094 3.5c.011 2.2.216 2.982.455 1.738.239-1.244.23-3.044-.02-4s-.446.062-.435 2.262M69.15 88.668c-.083 1.193-.441 2.993-.797 4-.498 1.409-.364 1.571.578.704.674-.621 1.033-2.421.797-4-.302-2.024-.473-2.231-.578-.704M62.232 91c0 1.925.206 2.713.457 1.75.252-.963.252-2.537 0-3.5-.251-.963-.457-.175-.457 1.75m168.02 1.5c.011 2.2.216 2.982.455 1.738.239-1.244.23-3.044-.02-4s-.446.062-.435 2.262m-11.057 3c.02 1.65.244 2.204.498 1.231.254-.973.237-2.323-.037-3-.274-.677-.481.119-.461 1.769M61.158 98c0 1.375.227 1.938.504 1.25.278-.687.278-1.812 0-2.5-.277-.687-.504-.125-.504 1.25m119.195 1.137c1.293.752 2.5.763 4 .038 1.873-.907 1.637-1.044-1.853-1.077-3.328-.031-3.689.144-2.147 1.039M175.5 100c.34.55 1.068 1 1.618 1s.722-.45.382-1c-.34-.55-1.068-1-1.618-1s-.722.45-.382 1m12.5 0c-1.293.835-1.266.971.191.985.93.008 1.969-.435 2.309-.985.782-1.266-.542-1.266-2.5 0m-117.805 2.5c.02 1.65.244 2.204.498 1.231.254-.973.237-2.323-.037-3-.274-.677-.481.119-.461 1.769M192 101.059c0 .582.45.781 1 .441s1-.816 1-1.059-.45-.441-1-.441-1 .477-1 1.059m-129.921 1.524c.048 1.165.285 1.402.604.605.289-.722.253-1.585-.079-1.917-.332-.332-.568.258-.525 1.312m167.207 2.917c.008 2.75.202 3.756.432 2.236.229-1.52.223-3.77-.014-5-.237-1.23-.425.014-.418 2.764M157 102.882c0 .55.45 1.278 1 1.618.55.34 1 .168 1-.382s-.45-1.278-1-1.618c-.55-.34-1-.168-1 .382m8.977 2.642c-1.837 1.895-3.019 3.768-2.625 4.161.393.393 2.323-.893 4.289-2.859 1.966-1.966 3.147-3.839 2.625-4.161-.522-.323-2.452.964-4.289 2.859m30.515-2.425c-.447.77-.456 1.079-.02.685.437-.394 1.67.398 2.741 1.759 1.071 1.362 2.383 2.207 2.916 1.878.598-.37.513-1.147-.223-2.034-.655-.79-1.42-1.206-1.7-.927-.279.28-1.047-.227-1.704-1.127-1-1.367-1.33-1.406-2.01-.234m-30.055 3.151l-2.937 3.25 3.25-2.937c3.029-2.738 3.71-3.563 2.937-3.563-.172 0-1.635 1.463-3.25 3.25m12.654-1.327c-.775.49-2.087.632-2.914.315-1.068-.41-1.265-.189-.677.762.591.956.389 1.171-.706.751-1.233-.473-1.128.23.534 3.58 1.137 2.293 1.959 4.732 1.826 5.419-.133.688.228 1.25.802 1.25.574 0 1.044-.45 1.044-1s1.152-1 2.559-1c1.451 0 2.292.433 1.941 1-.34.55.084 1 .941 1s1.559-.436 1.559-.969c0-.532.787-.721 1.75-.418 1.616.508 1.624.445.094-.823-1.237-1.026-1.403-1.826-.655-3.163.551-.985.776-2.654.5-3.71-.277-1.056-.126-1.687.335-1.402.461.285 1.161-.005 1.556-.645.511-.826-.047-.97-1.931-.497-1.567.394-2.649.249-2.649-.354 0-1.251-3.982-1.316-5.909-.096m-116.012 1.66c.048 1.165.285 1.402.604.605.289-.722.253-1.585-.079-1.917-.332-.332-.568.258-.525 1.312m92.936 1.726c-.009 2.288.384 3.562.985 3.191 1.264-.781 1.264-3.544 0-5.5-.72-1.113-.973-.519-.985 2.309m-84.936-.726c.048 1.165.285 1.402.604.605.289-.722.253-1.585-.079-1.917-.332-.332-.568.258-.525 1.312M190.5 107c-.34.55-.168 1 .382 1s1.278-.45 1.618-1c.34-.55.168-1-.382-1s-1.278.45-1.618 1m-86 1c.34.55 1.604.993 2.809.985 1.781-.013 1.91-.197.691-.985-1.97-1.273-4.287-1.273-3.5 0m10 0c-.34.55.057 1 .882 1s1.778-.45 2.118-1c.34-.55-.057-1-.882-1s-1.778.45-2.118 1m56.053-.085a1.116 1.116 0 00.362 1.532c.521.322 1.21.159 1.532-.362a1.116 1.116 0 00-.362-1.532 1.116 1.116 0 00-1.532.362M193.5 108c-.34.55-.297 1 .096 1s-.06.855-1.006 1.901c-.97 1.071-1.305 2.157-.768 2.489.523.323 1.507-.082 2.187-.901.68-.819.94-1.489.578-1.489-.361 0-.176-.9.413-2 1.09-2.036-.291-2.957-1.5-1m-93 1c.34.55.816 1 1.059 1s.441-.45.441-1-.477-1-1.059-1-.781.45-.441 1m18.065-.105c-.526.851 1.79 2.333 3.935 2.519.55.047 1.056.649 1.125 1.336.294 2.942.424 3.25 1.375 3.25 1.89 0 .997-2.629-1.805-5.313-3.019-2.892-3.77-3.183-4.63-1.792m78.001-.001c-.304.491.526.829 1.845.75 1.318-.079 2.189-.482 1.934-.894-.64-1.036-3.108-.942-3.779.144m-132.487 1.689c.048 1.165.285 1.402.604.605.289-.722.253-1.585-.079-1.917-.332-.332-.568.258-.525 1.312m30.421.259c-3.69 2.255-5.884 4.802-4.745 5.506.468.29 2.444-.931 4.389-2.714 1.946-1.782 4.122-3.045 4.836-2.807.767.255 1.013-.03.6-.697-.94-1.521-1.573-1.432-5.08.712m72.134.01c-1.772 1.958-2.167 4.148-.749 4.148 1.341 0 4.217-4.819 3.238-5.424-.471-.291-1.591.283-2.489 1.276M220.232 112c0 1.925.206 2.713.457 1.75.252-.963.252-2.537 0-3.5-.251-.963-.457-.175-.457 1.75m-53.252-.476c-.696.838-1.071 1.718-.835 1.955.237.236.98-.449 1.651-1.524 1.452-2.325.968-2.58-.816-.431m-94.901 1.059c.048 1.165.285 1.402.604.605.289-.722.253-1.585-.079-1.917-.332-.332-.568.258-.525 1.312m19.326 1.667L89.5 116.5l2.25-1.905c1.237-1.048 2.25-2.06 2.25-2.25 0-.8-.805-.209-2.595 1.905m11.207.267c-1.588.829-3.492 1.389-4.23 1.245-1.8-.352-7.376 3.417-7.379 4.988-.005 2.017 2.136 1.433 2.704-.739.286-1.094.892-1.759 1.345-1.479.454.281 1.252-.253 1.773-1.185.848-1.514 1.227-1.394 3.562 1.125 2.847 3.073 3.313 5.079 1.363 5.866-.687.277.775.495 3.25.483 3.492-.016 3.94-.181 2-.736l-2.5-.716 2.699-.536c1.484-.295 3.096-.138 3.582.348 1.16 1.16 4.391-.094 3.588-1.393-.382-.617-.969-.481-1.531.355-.574.853-.655-.128-.219-2.643.381-2.2 1.298-4.45 2.036-5 2.311-1.721-8.741-1.705-12.043.017m13.978.337c-.29.469.609 1.371 1.998 2.004s2.277 1.551 1.974 2.041c-.602.974 2.398 2.474 3.248 1.625.288-.288-.002-.524-.643-.524-.642 0-1.167-.477-1.167-1.059s.563-.771 1.25-.419c.688.351-.013-.522-1.556-1.941-2.946-2.71-4.228-3.144-5.104-1.727m51.917.135c-.35.566.051.734.941.393 1.732-.665 2.049-1.382.611-1.382-.518 0-1.216.445-1.552.989m28.262 1.479c-3.477 3.06-9.261 3.874-18.75 2.636-7.168-.934-9.061-.812-7.749.499 1.108 1.108 16.172 2.408 20.551 1.774 4.076-.59 10.179-4.467 10.179-6.466 0-1.487-1.33-.997-4.231 1.557m31.331-1.3c-.205 3.424 1.068 4.834 4.257 4.714l3.143-.119-2.955-.633c-2.016-.433-3.177-1.428-3.651-3.132-.392-1.41-.738-1.771-.794-.83M172 116c-1.293.835-1.266.971.191.985.93.008 1.969-.435 2.309-.985.782-1.266-.542-1.266-2.5 0m-105.921 1.583c.048 1.165.285 1.402.604.605.289-.722.253-1.585-.079-1.917-.332-.332-.568.258-.525 1.312m7.116 1.917c.02 1.65.244 2.204.498 1.231.254-.973.237-2.323-.037-3-.274-.677-.481.119-.461 1.769m86.393-.643c-.388.629-.203 1.143.412 1.143s.849.435.521.966c-.917 1.483 3.373 9.218 4.669 8.417.757-.468.59-1.071-.523-1.885-.9-.657-1.343-1.489-.985-1.847.358-.358.1-.651-.574-.651-.674 0-.955-.439-.623-.976.332-.537-.025-2.176-.793-3.643-.892-1.702-1.653-2.253-2.104-1.524m61.491.726c.048 1.165.285 1.402.604.605.289-.722.253-1.585-.079-1.917-.332-.332-.568.258-.525 1.312M115.5 121c.34.55 1.379.993 2.309.985 1.457-.014 1.484-.15.191-.985-1.958-1.266-3.282-1.266-2.5 0m122.786 1.301c1.218 1.265 2.399 2.168 2.625 2.006.583-.419-3.055-4.307-4.03-4.307-.445 0 .187 1.035 1.405 2.301M95 122c-1.293.835-1.266.971.191.985.93.008 1.969-.435 2.309-.985.782-1.266-.542-1.266-2.5 0m132.079.583c.048 1.165.285 1.402.604.605.289-.722.253-1.585-.079-1.917-.332-.332-.568.258-.525 1.312M99 123.059c0 .582.45.781 1 .441s1-.816 1-1.059-.45-.441-1-.441-1 .477-1 1.059m17.151 1.451c-5.772 2.687-9.874 2.996-20.114 1.516-6.102-.882-8.075-.731-6.822.522.301.302 4.892 1.042 10.202 1.645 9.473 1.076 9.784 1.044 16.618-1.707 3.831-1.542 6.965-3.182 6.965-3.645 0-1.287-1.05-1.031-6.849 1.669m116.552-1.81c2.148.416 2.116.547-1.25 5.233-3.525 4.906-4.039 6.067-2.689 6.067.42 0 1.876-1.8 3.236-4 4.76-7.701 5.372-5.509 4.497 16.085-.578 14.246-1.011 17.915-2.112 17.915-.762 0-1.385.45-1.385 1 0 1.457 2.57 1.223 3.877-.352 1.366-1.645 2.331-13.894 1.032-13.092-.5.309-.909.085-.909-.497s.338-1.059.75-1.059.772-2.137.799-4.75c.028-2.613.423-7.75.88-11.416.792-6.363.713-6.783-1.754-9.25-1.437-1.436-3.603-2.524-4.88-2.448-2.276.135-2.277.14-.092.564m-164.624 1.883c.048 1.165.285 1.402.604.605.289-.722.253-1.585-.079-1.917-.332-.332-.568.258-.525 1.312m5.746 4.743c-.373 1.825-.233 2.482.393 1.856.533-.533.793-1.805.576-2.826-.291-1.375-.543-1.123-.969.97M242.36 138c0 5.225.169 7.363.375 4.75.206-2.613.206-6.887 0-9.5-.206-2.613-.375-.475-.375 4.75m-76.715-7.235c-.316.511.711 2.16 2.281 3.664 1.57 1.504 3.113 2.317 3.429 1.806.316-.511-.711-2.16-2.281-3.664-1.57-1.504-3.113-2.317-3.429-1.806M168 133.5c1.292 1.375 2.574 2.5 2.849 2.5.275 0-.557-1.125-1.849-2.5-1.292-1.375-2.574-2.5-2.849-2.5-.275 0 .557 1.125 1.849 2.5M74 136c0 1.964-.504 3-1.461 3-2.9 0-5.548 4.16-5.371 8.439l.168 4.061.406-4c.454-4.475 2.637-7.5 5.413-7.5 1.442 0 1.845-.765 1.845-3.5 0-1.925-.225-3.5-.5-3.5s-.5 1.35-.5 3m166.079.583c.048 1.165.285 1.402.604.605.289-.722.253-1.585-.079-1.917-.332-.332-.568.258-.525 1.312m-172.002 2.006c-1.692 1.424-3.077 3.059-3.077 3.635 0 .575.933-.14 2.073-1.589 1.139-1.449 2.714-2.635 3.5-2.635.785 0 1.427-.45 1.427-1 0-1.479-.534-1.263-3.923 1.589m104.98-.02c.644.775 1.599 1.144 2.123.82 1.164-.72.3-1.701-1.765-2.004-1.204-.177-1.28.073-.358 1.184m52.532 2.181c.441.963.793 3.213.782 5-.024 3.663 1.158 4.309 2.152 1.176.734-2.31-1.216-7.926-2.751-7.926-.578 0-.654.724-.183 1.75m-49.201 4c-.358 1.512-1.525 3.715-2.594 4.895-1.07 1.179-1.521 2.406-1.003 2.726 1.603.99 4.646-3.345 4.876-6.947.264-4.122-.383-4.462-1.279-.674M64.232 147c0 1.925.206 2.713.457 1.75.252-.963.252-2.537 0-3.5-.251-.963-.457-.175-.457 1.75m174.926-1c0 1.375.227 1.938.504 1.25.278-.687.278-1.812 0-2.5-.277-.687-.504-.125-.504 1.25m-64.753 4.25l-1.905 2.25 2.25-1.905c1.238-1.048 2.25-2.06 2.25-2.25 0-.8-.805-.209-2.595 1.905M241.32 154c0 3.575.182 5.037.403 3.25.222-1.787.222-4.713 0-6.5-.221-1.787-.403-.325-.403 3.25m-176.241-1.417c.048 1.165.285 1.402.604.605.289-.722.253-1.585-.079-1.917-.332-.332-.568.258-.525 1.312m161.921.18c0 .419 1.012 1.207 2.25 1.75 3.154 1.383 2.859 3.917-.5 4.303-3.098.357-3.794 2.184-.832 2.184 3.625 0 5.082-1.167 5.082-4.072 0-1.802-.715-3.24-1.934-3.893-2.283-1.222-4.066-1.341-4.066-.272m-68 1.12c0 .945 3.375 2.081 6.25 2.103.963.008 1.75-.661 1.75-1.486 0-1.083-1.111-1.5-4-1.5-2.2 0-4 .398-4 .883m9 .117c0 .55.477 1 1.059 1s.781-.45.441-1-.816-1-1.059-1-.441.45-.441 1m-101.969 1.5c0 .55.436 1.675.969 2.5.533.825.969 1.05.969.5s-.436-1.675-.969-2.5c-.533-.825-.969-1.05-.969-.5m4 3c0 .55.436 1.675.969 2.5.533.825.969 1.05.969.5s-.436-1.675-.969-2.5c-.533-.825-.969-1.05-.969-.5m82.636 1.167c-.367.366-.667 1.447-.667 2.401 0 1.386 1.259 1.88 6.25 2.45 9.174 1.049 20.186 5.6 27.077 11.189 3.549 2.879 7.673 3.083 7.673.379 0-3.67-20.906-14.377-31.394-16.08-7.265-1.179-8.069-1.21-8.939-.339m86.479 2.833c-.095 1.65-.405 4.125-.688 5.5l-.514 2.5 1.075-2.465c.592-1.356.901-3.831.688-5.5l-.387-3.035-.174 3M130 165.576c-13.065 6.981-26.092 20.895-21.957 23.45.986.61 2.102-.448 4.048-3.842 3.987-6.953 10.312-12.651 18.578-16.735 4.049-2.001 7.82-4.495 8.381-5.543 1.452-2.712.491-2.429-9.05 2.67m112.195-2.076c.02 1.65.244 2.204.498 1.231.254-.973.237-2.323-.037-3-.274-.677-.481.119-.461 1.769m-173.164 0c0 .55.436 1.675.969 2.5.533.825.969 1.05.969.5s-.436-1.675-.969-2.5c-.533-.825-.969-1.05-.969-.5m3.542 1.5c.368 1.375 1.086 3.175 1.596 4 .644 1.042.723.737.258-1-.368-1.375-1.086-3.175-1.596-4-.644-1.042-.723-.737-.258 1m162.976 7.946c-.969 1.07-3.401 2.12-5.405 2.332l-3.644.386 3.576.168c2.659.125 4.177-.473 5.924-2.332 1.292-1.375 2.115-2.5 1.829-2.5-.285 0-1.312.876-2.28 1.946m-12.294.304c-1.339 1.69-3.728 9.419-6.196 20.047-3.949 16.999-7.574 21.921-26.481 35.951-9.874 7.327-11.782 8.31-23.011 11.855-7.868 2.483-10.654 2.863-21.067 2.87-14.497.009-17.794-1.23-30.107-11.316-4.459-3.652-10.582-7.735-13.606-9.072-5.921-2.619-9.921-6.884-14.864-15.849-1.588-2.88-2.891-4.786-2.896-4.236-.02 2.305 6.279 11.676 12.165 18.1 3.477 3.795 8.413 9.6 10.969 12.9 6.625 8.555 11.603 13.063 17.339 15.701 4.463 2.052 6.451 2.292 18.5 2.235 14.155-.067 27.023-2.374 36.93-6.62 6.121-2.624 15.674-9.607 21.135-15.45 6.182-6.615 16.048-20.013 18.152-24.651 2.166-4.776 4.471-15.927 5.367-25.965.679-7.605.015-9.459-2.329-6.5m-147.176 2.333c.048 1.165.285 1.402.604.605.289-.722.253-1.585-.079-1.917-.332-.332-.568.258-.525 1.312M235 177c-.901.582-1.025.975-.309.985.655.008 1.469-.435 1.809-.985.767-1.242.421-1.242-1.5 0m-6.187 1.683c.721.289 1.584.253 1.916-.079.332-.332-.258-.568-1.312-.525-1.165.048-1.402.285-.604.604m-154.697 4.508c-.064 2.58.24 4.911.675 5.18.435.269.634-1.167.442-3.191-.586-6.184-.995-6.913-1.117-1.989m153.116.809c0 1.925.206 2.713.457 1.75.252-.963.252-2.537 0-3.5-.251-.963-.457-.175-.457 1.75m-150.153 1.583c.048 1.165.285 1.402.604.605.289-.722.253-1.585-.079-1.917-.332-.332-.568.258-.525 1.312m149.116 4.917c.02 1.65.244 2.204.498 1.231.254-.973.237-2.323-.037-3-.274-.677-.481.119-.461 1.769m-145.116 1.083c.048 1.165.285 1.402.604.605.289-.722.253-1.585-.079-1.917-.332-.332-.568.258-.525 1.312m-2 3c.048 1.165.285 1.402.604.605.289-.722.253-1.585-.079-1.917-.332-.332-.568.258-.525 1.312m146 2c.048 1.165.285 1.402.604.605.289-.722.253-1.585-.079-1.917-.332-.332-.568.258-.525 1.312M83.086 198c-.031.825.381 2.175.914 3 1.181 1.828 1.181.249 0-2.5-.567-1.319-.878-1.489-.914-.5m141.03 2.168c-.064.918-.375 2.493-.692 3.5-.545 1.736-.515 1.739.568.051.628-.98.939-2.555.691-3.5-.406-1.549-.462-1.554-.567-.051M82.023 203.36c-.046 1.738 6.262 12.584 8.337 14.334 2.128 1.796 2.13 1.794.348-.319-.986-1.169-3.338-4.994-5.227-8.5-1.89-3.506-3.446-5.988-3.458-5.515M218 213c-.589 1.1-.845 2-.57 2s.981-.9 1.57-2c.589-1.1.845-2 .57-2s-.981.9-1.57 2m-5.128 7.75c-1.243 1.586-1.208 1.621.378.378 1.666-1.307 2.195-2.128 1.372-2.128-.207 0-.995.787-1.75 1.75m-115.93 4.75c7.474 8.315 8.922 9.676 5.318 5-1.696-2.2-4.8-5.575-6.897-7.5-2.496-2.29-1.95-1.426 1.579 2.5m112.463-.25l-1.905 2.25 2.25-1.905c1.238-1.048 2.25-2.06 2.25-2.25 0-.8-.805-.209-2.595 1.905M200 235.227c-4.125 3.923-5.7 5.74-3.5 4.038 3.883-3.005 12.366-11.313 11.453-11.218-.249.026-3.828 3.257-7.953 7.18m-93.036 2.246c2.742 3.795 10.529 11.674 12.536 12.683 1.1.554.565-.166-1.189-1.599-1.753-1.433-5.353-4.969-8-7.858-2.646-2.889-4.152-4.341-3.347-3.226M185 246c-1.925 1.054-3.14 1.935-2.7 1.958 1.059.056 6.7-2.877 6.7-3.484 0-.654-.059-.632-4 1.526m-10.5 4c-1.261.542-1.445.859-.5.859.825 0 2.4-.386 3.5-.859 1.261-.542 1.445-.859.5-.859-.825 0-2.4.386-3.5.859m-8.75 2.662c.688.278 1.813.278 2.5 0 .688-.277.125-.504-1.25-.504s-1.937.227-1.25.504m-38.937 1.021c.721.289 1.584.253 1.916-.079.332-.332-.258-.568-1.312-.525-1.165.048-1.402.285-.604.604m33.937-.021c.688.278 1.813.278 2.5 0 .688-.277.125-.504-1.25-.504s-1.937.227-1.25.504m-30 1c.688.278 1.813.278 2.5 0 .688-.277.125-.504-1.25-.504s-1.937.227-1.25.504m22.5.027c.963.252 2.537.252 3.5 0 .963-.251.175-.457-1.75-.457s-2.713.206-1.75.457m-13.5 1.034c1.787.222 4.713.222 6.5 0 1.787-.221.325-.403-3.25-.403s-5.037.182-3.25.403" fill="#1976D2" fill-rule="evenodd"/><path fill-opacity=".542" d="M176.713 106.621c-2.503 2.503.976 8.379 4.961 8.379 2.764 0 5.557-3.34 5.156-6.168-.283-1.998-.98-2.374-4.867-2.628-2.496-.163-4.858.025-5.25.417M181 109c-.825.533-1.05.969-.5.969s1.675-.436 2.5-.969c.825-.533 1.05-.969.5-.969s-1.675.436-2.5.969m-78.75 5.662c-.687.278-1.25 1.335-1.25 2.35 0 4.942 7.718 6.874 10.5 2.629 2.396-3.657 1.011-5.655-3.857-5.562-2.279.043-4.705.306-5.393.583m96.695.904c-3.226 3.887-6.945 4.73-18.411 4.17-7.167-.35-9.632-.243-7.034.305 2.2.464 7.51.87 11.8.901 8.368.062 12.825-1.439 14.706-4.952 1.274-2.382.741-2.595-1.061-.424m-92.438 1.423c-.35.566.051.734.941.393 1.732-.665 2.049-1.382.611-1.382-.518 0-1.216.445-1.552.989m9.017 8.195c-3.552 1.872-5.152 2.041-15 1.586-6.975-.323-9.371-.218-6.524.286 9.207 1.628 17.407 1.097 23.122-1.498 2.958-1.344 4.703-2.449 3.878-2.456-.825-.008-3.289.929-5.476 2.082m111.177 18.544c.775 5.021 1.299 5.424 1.299.998 0-1.985-.423-3.87-.941-4.189-.561-.347-.705.941-.358 3.191m2.549 9.844c3.543 1.922 3.612 4.995.132 5.868-1.44.362-2.402.873-2.139 1.137 1.148 1.148 5.757-1.65 5.757-3.496 0-1.934-3.458-5.119-5.473-5.041-.565.022.211.711 1.723 1.532m-70.25.491c0 .515 1.875.937 4.167.937 4.935 0 4.776-.494-.417-1.296-2.077-.32-3.75-.16-3.75.359m-6 7.593c0 1.652 1.093 2.104 7.25 2.994 7.455 1.078 19.034 5.976 25.648 10.847 4 2.947 7.102 3.268 7.102.737 0-2.031-6.582-6.186-18.5-11.679-9.993-4.606-21.5-6.157-21.5-2.899m-23.5 4.526c-9.543 4.869-21.5 16.165-21.5 20.311 0 3.888 1.535 2.993 4.806-2.803 3.83-6.787 8.761-11.082 17.575-15.305 3.867-1.854 7.411-4.048 7.875-4.877 1.228-2.195.128-1.859-8.756 2.674m92.647 9.568c-.602 1.512-2.446 8.287-4.098 15.054-3.971 16.27-5.775 20.032-12.714 26.522-14.327 13.399-24.353 19.87-36.869 23.797-8.786 2.756-11.446 3.14-22.466 3.241-14.682.134-15.94-.341-29.237-11.04-4.544-3.658-8.782-7.045-9.416-7.529-.634-.483-2.585-1.29-4.335-1.791-2.434-.699-2.963-.63-2.25.292 19.165 24.798 22.384 27.128 38.778 28.067 14.064.805 36.147-3.748 46.272-9.542 10.742-6.145 27.389-24.338 33.648-36.773 2.173-4.316 5.032-17.963 5.929-28.298.472-5.441-1.409-6.601-3.242-2" fill="#1976D2" fill-rule="evenodd"/></svg>